<?xml version="1.0" standalone="no"?>
<!DOCTYPE svg PUBLIC "-//W3C//DTD SVG 20010904//EN"
 "http://www.w3.org/TR/2001/REC-SVG-20010904/DTD/svg10.dtd">
<svg version="1.0" xmlns="http://www.w3.org/2000/svg"
 width="626.000000pt" height="626.000000pt" viewBox="0 0 626.000000 626.000000"
 preserveAspectRatio="xMidYMid meet">

<g transform="translate(0.000000,626.000000) scale(0.100000,-0.100000)"
fill="#000000" stroke="none">
<path d="M3245 5508 c-30 -18 -45 -35 -45 -52 0 -9 -4 -16 -10 -16 -5 0 -10
-13 -10 -30 0 -30 -1 -30 -55 -30 -31 0 -63 -6 -71 -12 -64 -54 -94 -101 -94
-150 0 -29 -4 -38 -16 -38 -18 0 -43 -27 -44 -47 0 -7 9 -13 20 -13 11 0 20 5
20 10 0 6 23 10 50 10 28 0 50 -3 50 -8 0 -4 10 -12 23 -17 12 -6 26 -20 32
-32 5 -13 13 -23 17 -23 5 0 8 -13 8 -29 0 -37 24 -59 45 -41 8 7 15 21 15 31
0 11 7 19 15 19 8 0 15 -4 15 -10 0 -5 5 -10 11 -10 17 0 38 -32 39 -57 0 -13
9 -28 20 -35 11 -7 20 -21 20 -30 0 -10 3 -18 8 -18 9 0 26 -39 43 -97 7 -24
18 -43 25 -43 17 0 27 34 19 63 -19 64 -20 60 21 52 22 -4 61 -8 88 -10 l49
-3 16 -48 c11 -36 12 -49 3 -52 -23 -7 -12 -18 32 -31 25 -7 58 -10 73 -7 18
4 36 1 48 -8 20 -15 20 -15 -1 -16 -31 0 -34 -9 -10 -35 36 -39 43 -50 50 -78
4 -17 2 -27 -5 -27 -14 0 -33 -20 -44 -45 -8 -19 -9 -19 -12 3 -3 13 -12 22
-22 22 -9 0 -25 14 -34 30 -17 27 -23 30 -72 30 -33 0 -55 5 -57 12 -9 26 -78
-65 -78 -102 0 -27 -16 -25 -36 5 -10 16 -14 34 -9 54 7 31 33 51 31 24 0 -9
5 -18 11 -20 9 -3 12 7 11 31 -1 25 -6 36 -17 36 -11 0 -10 3 5 15 18 13 18
14 -6 8 l-25 -6 21 21 c12 11 34 22 50 24 l29 3 -34 18 c-37 19 -91 23 -91 7
0 -5 5 -10 10 -10 6 0 10 -8 10 -17 0 -12 -11 -5 -35 22 -33 35 -37 37 -52 22
-15 -15 -15 -18 8 -36 13 -11 19 -20 12 -21 -9 0 -8 -8 3 -27 21 -41 18 -58
-11 -59 -18 -1 -25 3 -25 15 0 10 -3 21 -7 25 -5 4 -8 11 -8 16 0 5 -11 17
-23 29 -14 12 -21 25 -16 32 5 9 0 10 -17 6 -13 -4 -43 -7 -67 -7 -26 0 -41
-4 -37 -10 3 -5 0 -7 -8 -4 -20 7 -57 -55 -57 -95 0 -17 -4 -31 -10 -31 -5 0
-10 9 -10 20 0 13 -7 20 -20 20 -22 0 -27 15 -7 23 8 4 7 6 -3 6 -20 1 -52 38
-40 46 6 4 10 15 10 26 0 10 4 19 9 19 5 0 11 9 14 20 3 14 14 20 31 20 32 0
34 17 4 30 -19 7 -19 9 -5 9 10 1 16 5 13 10 -8 13 49 31 95 31 22 0 39 2 39
5 0 3 -15 20 -34 38 -28 27 -40 33 -68 29 -30 -3 -38 1 -62 32 -15 20 -34 36
-42 36 -7 0 -14 5 -14 10 0 6 -11 10 -24 10 -14 0 -28 5 -31 10 -3 6 -36 10
-72 10 -55 0 -69 -4 -84 -22 -11 -11 -19 -25 -19 -30 0 -4 -9 -8 -20 -8 -12 0
-20 -7 -20 -16 0 -14 -3 -14 -15 -4 -17 14 -21 85 -5 95 6 3 10 15 10 26 0 15
7 19 31 19 17 0 28 4 24 10 -4 6 8 10 29 10 25 0 36 4 36 15 0 8 -9 15 -19 15
-11 0 -27 8 -37 17 -13 13 -19 14 -22 5 -2 -6 -19 -12 -38 -12 -37 0 -46 15
-14 23 22 6 27 27 7 27 -8 0 -27 11 -43 25 -16 14 -30 20 -32 15 -2 -6 -28
-10 -59 -10 -60 0 -100 -23 -72 -41 12 -8 12 -10 -1 -8 -26 4 -50 -12 -50 -32
0 -10 -4 -19 -10 -19 -5 0 -10 -9 -10 -20 0 -11 -4 -20 -10 -20 -5 0 -10 3
-10 8 0 15 -66 35 -119 36 -64 1 -82 -17 -21 -22 22 -2 40 -7 40 -13 0 -5 9
-9 20 -9 11 0 20 -7 20 -15 0 -8 13 -29 30 -47 25 -25 30 -39 30 -79 0 -26 2
-53 3 -61 2 -7 2 -10 0 -5 -7 10 -43 9 -43 -3 0 -10 35 -32 42 -25 2 2 5 -5 5
-16 2 -19 0 -20 -15 -7 -9 8 -25 18 -35 22 -11 3 -21 15 -24 25 -3 11 -16 22
-29 25 -13 4 -24 11 -24 16 0 6 -7 10 -15 10 -48 0 -84 81 -49 111 13 11 14 9
9 -17 -6 -28 -6 -28 9 -10 9 11 14 28 10 38 -3 10 -1 18 5 18 6 0 11 5 11 10
0 16 -38 12 -67 -7 -36 -24 -53 -68 -39 -99 6 -13 14 -24 19 -24 4 0 7 -9 7
-20 0 -11 -4 -20 -10 -20 -5 0 -19 -9 -30 -20 -17 -17 -20 -33 -20 -104 0 -93
5 -116 26 -116 15 0 20 -55 6 -64 -5 -3 -21 4 -37 14 l-30 19 -22 -27 c-12
-15 -22 -21 -23 -14 0 6 5 12 10 12 6 0 10 10 10 23 0 18 -2 19 -10 7 -7 -11
-10 -7 -10 17 0 17 5 33 12 35 18 6 -32 58 -57 58 -11 0 -26 -5 -33 -12 -9 -9
-5 -15 18 -24 17 -7 35 -25 42 -39 10 -22 8 -28 -11 -46 -12 -11 -19 -24 -16
-30 4 -5 1 -9 -6 -9 -8 0 -10 15 -7 50 5 52 3 55 -42 52 -8 0 -17 3 -20 7 -11
18 -59 21 -74 5 -9 -8 -16 -11 -16 -5 0 13 -46 15 -54 2 -11 -18 21 -39 67
-44 56 -5 79 -27 74 -74 -2 -26 1 -33 20 -38 27 -6 29 -23 8 -51 -13 -16 -14
-16 -9 -1 5 14 0 17 -34 17 -23 0 -44 5 -47 10 -3 6 -13 10 -21 10 -8 0 -12
-5 -9 -10 8 -12 -20 -24 -39 -17 -8 3 -12 15 -9 31 3 16 10 23 17 19 6 -4 5 1
-3 10 -13 16 -12 29 4 72 7 16 6 18 -6 8 -19 -19 -31 -16 -24 6 3 11 2 22 -3
25 -11 6 -22 -26 -22 -64 0 -14 -9 -50 -20 -80 -23 -63 -23 -63 -10 -55 6 4
10 -5 10 -19 0 -28 9 -33 27 -15 7 7 13 7 17 1 3 -5 -1 -15 -9 -22 -20 -17
-19 -89 2 -112 15 -17 15 -18 0 -18 -10 0 -17 5 -17 10 0 6 -15 10 -32 10 -50
1 -88 39 -88 89 0 56 -18 91 -47 91 -18 0 -25 7 -29 30 -6 25 -11 30 -36 30
-23 0 -32 6 -42 30 -7 17 -15 27 -19 23 -11 -10 -8 -101 3 -108 5 -3 10 -19
10 -35 0 -20 6 -31 20 -35 15 -5 19 -12 14 -30 -8 -33 23 -73 68 -85 20 -6 44
-17 52 -25 18 -18 102 -20 158 -3 29 9 41 9 50 0 9 -9 6 -12 -15 -12 -15 0
-27 -4 -27 -10 0 -5 11 -10 24 -10 14 0 28 -4 31 -10 10 -17 33 -11 40 10 5
15 15 20 45 20 22 0 40 -5 43 -12 3 -10 9 -10 30 1 21 11 31 12 57 1 34 -14
60 -49 38 -51 -7 -1 -19 -1 -27 0 -7 2 -10 -2 -6 -8 3 -6 27 -11 51 -11 l46 0
-7 33 c-13 65 -28 87 -57 87 -16 0 -28 5 -28 10 0 15 -47 12 -53 -2 -4 -10 -6
-10 -6 0 -1 15 -138 17 -143 1 -2 -6 -14 -8 -31 -4 -20 5 -27 13 -27 30 0 13
-6 26 -12 28 -10 4 -9 8 2 16 13 10 13 12 0 22 -11 7 -4 8 28 4 34 -6 42 -4
42 9 0 9 -8 16 -17 17 -50 3 -57 5 -60 17 -8 21 126 16 146 -5 9 -10 23 -19
31 -21 8 -2 17 -8 18 -13 5 -12 59 -12 67 1 3 6 17 10 31 10 13 0 24 -4 24
-10 0 -5 18 -10 40 -10 36 0 40 -3 40 -25 0 -18 4 -23 16 -18 10 4 17 -1 21
-16 7 -29 23 -26 23 4 0 43 -24 105 -42 111 -10 3 -18 10 -18 15 0 5 -9 9 -20
9 -11 0 -20 5 -20 10 0 16 31 11 49 -8 9 -10 28 -25 44 -35 24 -16 27 -23 27
-71 0 -59 8 -67 55 -58 24 4 27 2 22 -12 -4 -10 -3 -15 3 -11 6 3 9 -2 8 -12
-1 -10 2 -41 6 -70 l8 -52 77 -5 c42 -3 170 -9 285 -12 168 -5 210 -3 217 8 7
11 11 10 20 -2 8 -11 12 -12 16 -2 2 6 13 12 24 12 17 0 19 8 20 68 1 37 4 54
6 39 3 -17 9 -27 17 -24 7 3 18 -9 26 -27 19 -44 39 -61 52 -48 8 8 6 21 -6
45 -18 40 -21 73 -6 82 6 3 10 15 10 27 0 14 5 18 15 14 9 -3 18 1 21 9 4 8
19 15 34 15 19 0 29 6 33 20 5 18 0 20 -44 20 -52 0 -99 -22 -99 -46 0 -9 -11
-14 -30 -14 -16 0 -30 5 -30 10 0 6 -9 10 -20 10 -11 0 -20 5 -20 10 0 6 -10
10 -23 10 -13 0 -33 9 -44 19 -12 11 -24 17 -27 14 -3 -4 -6 1 -6 10 0 10 8
17 20 17 11 0 20 -4 20 -10 0 -5 5 -10 10 -10 6 0 10 7 10 15 0 9 -9 15 -22
15 -13 0 -34 10 -48 21 -14 11 -18 17 -10 13 8 -4 30 -10 49 -14 26 -4 37 -11
42 -30 4 -15 7 -18 8 -8 1 22 39 48 69 48 14 0 37 -14 55 -32 19 -21 32 -28
34 -20 3 7 24 12 54 12 31 0 48 4 44 10 -3 6 -26 10 -50 10 -50 0 -60 14 -39
55 8 15 11 38 8 51 -10 39 20 74 62 74 46 0 64 -19 64 -70 0 -30 5 -42 18 -47
9 -4 20 -11 24 -17 13 -19 9 -63 -7 -76 -11 -9 -13 -16 -5 -24 5 -5 10 -23 10
-38 0 -24 4 -28 29 -28 16 0 32 -6 35 -12 5 -10 7 -10 12 0 3 6 23 12 45 12
21 0 39 5 39 10 0 6 -32 10 -75 10 -56 0 -75 3 -75 13 0 11 20 13 91 9 86 -4
93 -6 124 -35 41 -40 55 -67 55 -106 0 -17 3 -31 8 -31 18 1 34 20 35 44 2 17
8 26 20 26 9 0 17 5 17 10 0 6 5 10 10 10 6 0 10 -9 10 -20 0 -11 5 -20 10
-20 6 0 10 -18 10 -40 l0 -40 -40 0 c-29 0 -40 -4 -40 -15 0 -13 -12 -15 -62
-13 -35 2 -62 7 -60 11 2 4 -11 21 -29 38 -17 16 -27 29 -23 29 5 0 -4 7 -20
15 -15 8 -39 15 -52 15 -12 0 -26 5 -29 10 -3 6 -37 10 -76 10 -39 0 -69 -4
-69 -10 0 -5 -7 -10 -16 -10 -8 0 -22 -6 -30 -14 -16 -17 -19 -46 -4 -46 6 0
10 -13 10 -30 0 -23 4 -30 20 -30 11 0 20 3 21 8 7 69 66 104 115 67 10 -8 33
-15 50 -15 34 0 54 -16 54 -42 0 -17 13 -18 170 -18 107 0 170 4 170 10 0 6 9
10 20 10 11 0 20 5 20 10 0 6 7 10 15 10 8 0 15 4 15 9 0 5 -7 14 -15 21 -10
9 -15 9 -15 1 0 -6 -4 -11 -10 -11 -5 0 -10 14 -10 30 0 21 -5 30 -16 30 -8 0
-22 6 -30 14 -18 19 -19 50 -1 43 10 -4 13 2 9 18 -3 16 2 28 17 37 12 7 21
21 21 30 0 14 8 18 33 18 38 1 70 22 62 42 -3 8 1 21 10 28 8 7 15 18 15 25 0
33 102 105 149 105 23 0 2 -17 -29 -24 -28 -5 -29 -7 -18 -26 8 -12 19 -18 29
-15 38 12 53 -70 18 -101 -16 -15 -22 -16 -29 -5 -6 11 -16 5 -44 -22 -20 -20
-36 -41 -36 -47 0 -5 -4 -10 -9 -10 -21 0 -71 -59 -71 -84 0 -14 -4 -26 -10
-26 -5 0 -9 -18 -8 -40 1 -34 5 -40 29 -45 28 -6 269 1 276 9 2 2 5 42 5 89 2
114 -16 156 -64 148 -14 -2 -8 15 12 39 21 24 28 80 10 80 -5 0 -10 9 -10 19
0 11 -6 21 -12 24 -7 2 -11 7 -8 10 3 4 19 -5 34 -18 21 -18 36 -23 55 -18 30
7 36 11 36 26 0 5 5 12 11 14 7 2 10 -6 7 -22 -3 -14 -9 -25 -14 -25 -5 0 -9
-6 -9 -14 0 -8 -6 -16 -12 -18 -9 -3 -8 -10 5 -22 10 -10 19 -17 20 -15 1 2 8
14 15 26 6 13 12 33 12 45 0 32 11 44 42 50 21 4 31 0 43 -18 15 -23 14 -24
-5 -24 -26 0 -60 -17 -60 -30 0 -6 9 -10 19 -10 11 0 23 -4 26 -10 3 -5 0 -10
-8 -10 -11 0 -15 -13 -14 -47 0 -55 -10 -93 -24 -93 -6 0 -17 -6 -24 -14 -8
-7 -25 -12 -39 -11 -32 4 -32 -4 -1 -34 18 -17 25 -34 25 -62 0 -31 4 -39 18
-39 10 0 23 -5 30 -12 9 -9 12 -9 12 0 0 7 12 12 26 12 21 0 24 4 19 20 -5 14
-2 20 10 20 8 0 18 8 21 18 4 9 13 32 21 50 19 44 9 123 -18 143 -25 18 -24
29 2 29 11 0 17 -4 14 -10 -3 -5 1 -10 10 -10 11 0 16 -8 15 -22 -4 -46 0 -89
8 -84 5 3 15 -4 22 -15 15 -20 50 -26 50 -9 0 6 9 10 21 10 16 0 19 -4 14 -22
-4 -13 -14 -28 -22 -35 -14 -11 -14 -14 0 -27 17 -18 67 -22 67 -6 0 6 -4 10
-10 10 -12 0 -13 50 -1 69 11 18 91 5 91 -15 0 -11 15 -13 66 -11 54 2 70 7
84 24 10 12 20 20 22 17 4 -4 3 34 -1 44 0 2 -14 -6 -31 -18 -25 -18 -30 -19
-30 -5 0 9 -11 26 -25 39 -31 28 -35 92 -7 122 30 34 45 70 37 95 -7 21 -6 22
9 7 9 -9 16 -24 16 -32 0 -21 26 -21 34 0 10 27 7 93 -6 116 -20 34 -56 68
-72 68 -8 0 -16 5 -18 11 -5 14 -126 13 -144 -2 -24 -19 -16 -29 24 -29 26 0
42 -6 52 -20 8 -11 19 -20 25 -20 5 0 23 -11 38 -24 41 -36 34 -67 -20 -82
-37 -11 -44 -10 -74 10 -18 13 -41 21 -51 18 -10 -2 -18 0 -18 6 0 17 -50 63
-61 57 -5 -4 -9 -17 -9 -30 0 -13 -4 -27 -10 -30 -5 -3 -10 -13 -10 -21 0 -19
-24 -44 -41 -44 -13 0 -79 67 -79 81 0 4 5 11 11 15 8 5 8 9 -1 14 -9 6 -6 10
9 15 11 3 21 11 21 16 0 17 -27 39 -49 39 -11 0 -32 11 -47 25 -15 14 -39 28
-53 32 -14 3 -29 11 -33 16 -3 6 -34 10 -68 10 -52 -1 -64 -4 -77 -23 -9 -12
-29 -34 -45 -48 -26 -23 -29 -32 -27 -74 2 -26 1 -49 -2 -51 -2 -3 -25 -8 -51
-11 l-48 -7 0 45 c0 25 -4 46 -10 46 -5 0 -10 8 -10 19 0 13 -9 20 -30 25 -16
3 -30 10 -30 15 0 15 33 23 41 10 5 -9 11 -8 23 4 18 17 22 67 6 67 -20 0 -9
36 21 73 18 22 39 37 52 37 21 -1 20 -2 -5 -17 -37 -23 -53 -65 -41 -106 l10
-32 12 43 c11 38 15 42 44 42 24 0 28 3 17 10 -13 8 -13 10 2 10 9 0 20 -4 23
-10 3 -5 18 -10 32 -10 20 0 24 4 20 20 -3 11 0 20 6 20 7 0 6 4 -3 10 -9 6
-17 5 -21 -2 -4 -7 -13 -6 -28 1 -12 7 -19 16 -16 22 8 12 65 12 65 -1 0 -5
15 -10 33 -10 17 0 43 -9 56 -19 21 -16 27 -16 62 -4 71 24 126 2 173 -71 15
-24 20 -26 27 -14 12 21 -12 76 -48 114 -35 37 -103 56 -144 41 -27 -10 -31
-8 -64 27 -38 42 -43 61 -20 70 9 3 15 0 15 -9 0 -20 16 -19 24 1 3 9 6 42 6
75 0 57 -2 61 -45 104 -39 40 -49 45 -93 46 -65 3 -144 -20 -140 -41 2 -11 19
-16 65 -18 58 -3 64 -5 112 -51 49 -46 63 -71 41 -71 -5 0 -12 0 -15 0 -3 0
-26 -10 -52 -21 -30 -13 -49 -16 -51 -10 -2 6 -14 11 -28 11 -17 0 -25 7 -30
24 -3 15 -11 23 -19 20 -7 -3 -21 8 -31 25 -20 33 -34 40 -34 16 0 -8 -4 -15
-10 -15 -5 0 -10 -7 -10 -15 0 -8 -9 -15 -20 -15 -11 0 -20 5 -20 10 0 6 -9
10 -20 10 -11 0 -20 5 -20 10 0 6 -9 10 -20 10 -11 0 -20 4 -20 9 0 5 9 13 20
16 27 9 25 31 -2 39 -34 9 -38 8 -38 -9 0 -8 -4 -15 -10 -15 -5 0 -10 4 -10 9
0 9 -57 25 -74 22 -9 -2 -68 -9 -88 -10 -5 -1 -8 -13 -8 -27 0 -14 -4 -23 -9
-20 -5 3 -8 24 -7 46 1 22 -1 40 -6 40 -4 0 -8 -6 -8 -13 0 -10 -15 -12 -60
-9 -60 4 -60 4 -98 -37 -20 -22 -41 -41 -45 -41 -18 0 -57 -51 -57 -75 0 -14
-4 -25 -8 -25 -14 0 -32 23 -32 42 0 10 -5 18 -11 18 -6 0 -9 6 -6 14 3 7 -3
20 -14 29 -23 20 -25 37 -4 37 8 0 15 5 15 10 0 14 -31 12 -62 -4 -35 -18 -35
-15 0 21 19 22 41 32 75 37 33 5 50 13 59 29 13 24 21 33 62 65 35 27 98 29
145 6 29 -15 33 -14 64 5 38 23 137 40 137 22 0 -6 9 -11 20 -11 27 0 26 5
-15 45 -30 31 -41 35 -84 35 -50 0 -101 -16 -101 -32 0 -17 -26 -7 -60 22 -38
32 -96 40 -135 18z m375 -305 c0 -7 -6 -13 -14 -11 -8 2 -21 -6 -29 -17 -12
-15 -18 -17 -29 -7 -8 6 -18 9 -21 5 -4 -3 -7 5 -7 20 0 22 4 26 30 25 17 -1
33 2 36 5 10 10 34 -4 34 -20z m-501 -5 c14 -19 5 -23 -18 -9 -7 5 -10 14 -6
21 4 6 8 10 9 8 1 -2 8 -11 15 -20z m291 3 c16 -31 12 -37 -27 -50 -45 -13
-80 -38 -69 -48 4 -4 16 -2 26 5 24 14 120 16 120 2 0 -5 9 -10 20 -10 11 0
20 -4 20 -10 0 -5 -6 -10 -14 -10 -8 0 -18 5 -21 10 -8 13 -105 13 -105 1 0
-5 -9 -13 -20 -16 -31 -10 -24 -32 10 -32 17 0 30 4 30 9 0 4 12 8 27 8 32 0
93 -62 93 -94 0 -45 -12 -66 -36 -66 -13 0 -24 5 -24 10 0 6 -8 10 -18 10 -29
0 -71 23 -76 42 -4 19 -26 25 -26 7 0 -5 -4 -7 -10 -4 -5 3 -10 15 -10 26 0
10 -6 18 -12 17 -8 -2 -13 7 -12 21 0 13 -7 32 -18 43 -10 10 -18 24 -18 32 0
15 50 56 68 56 6 0 20 14 32 30 24 34 55 39 70 11z m-815 -64 c0 -20 3 -37 8
-37 4 0 7 5 7 10 0 6 5 10 10 10 6 0 4 -15 -5 -36 -17 -41 -20 -124 -5 -124 6
0 10 -9 10 -20 0 -11 6 -20 14 -20 7 0 21 -10 29 -22 l16 -23 0 23 c1 12 4 22
9 22 12 0 31 -49 21 -56 -14 -8 -11 -94 4 -108 23 -22 88 -56 108 -56 14 0 19
7 19 25 0 14 5 25 10 25 6 0 10 -11 10 -25 0 -32 26 -33 51 -3 23 25 35 18 20
-10 -13 -25 -14 -69 -3 -74 12 -4 24 -58 14 -58 -5 0 -16 15 -25 33 -9 19 -16
25 -16 15 -1 -9 4 -20 9 -23 6 -3 10 -10 10 -14 0 -11 -38 -21 -42 -12 -4 9
-105 61 -119 61 -16 0 -39 26 -39 44 0 19 -16 21 -23 4 -2 -7 -12 6 -22 30
-14 34 -22 42 -44 42 -14 0 -31 4 -38 8 -12 8 -17 112 -4 112 4 0 8 18 9 40 2
23 -2 40 -8 40 -5 0 -10 22 -10 51 0 31 -4 48 -10 44 -5 -3 -10 -22 -10 -41 0
-38 -14 -44 -32 -14 -7 11 -20 20 -29 20 -47 0 -52 76 -6 98 15 7 27 19 27 26
0 21 24 37 50 34 22 -3 25 -8 25 -41z m1296 -58 c17 -20 17 -22 -17 -69 -19
-26 -34 -52 -34 -59 0 -6 -5 -11 -11 -11 -10 0 -5 97 7 143 7 23 33 22 55 -4z
m-203 -9 c2 -5 9 -16 16 -23 32 -32 38 -56 25 -114 -10 -45 -10 -58 -1 -61 17
-5 72 -52 72 -61 0 -4 -41 -7 -91 -8 -50 -1 -88 1 -85 4 3 3 -2 19 -10 35 -8
16 -14 37 -13 46 3 37 0 43 -20 33 -14 -8 -24 -6 -39 7 -19 16 -19 19 -4 28
15 10 15 13 0 36 -16 24 -15 38 4 38 4 0 8 -11 8 -25 0 -14 5 -25 10 -25 6 0
8 11 3 28 -13 50 -9 65 17 73 33 10 104 3 108 -11z m-148 -16 c0 -21 -17 -17
-23 5 -3 14 -1 18 9 14 8 -3 14 -11 14 -19z m-1060 -84 c0 -5 -9 -10 -20 -10
-11 0 -20 5 -20 10 0 6 9 10 20 10 11 0 20 -4 20 -10z m396 -15 c10 -8 33 -15
50 -15 34 0 54 -16 54 -42 0 -13 -8 -18 -26 -18 -31 0 -53 -25 -54 -58 0 -20
-3 -22 -38 -16 -34 5 -42 3 -60 -21 l-21 -26 -16 25 c-12 19 -15 34 -9 53 4
16 7 43 5 61 -5 59 66 94 115 57z m-405 -76 c9 -10 19 -16 23 -12 3 3 6 -1 6
-10 0 -9 5 -17 10 -17 6 0 10 -9 10 -19 0 -16 -9 -20 -60 -23 l-60 -3 0 51 c0
28 3 54 7 57 10 11 46 -3 64 -24z m-233 -25 c12 -8 22 -24 22 -35 0 -13 7 -19
23 -19 14 0 40 -16 65 -40 35 -35 46 -40 86 -40 25 0 46 -4 46 -10 0 -5 7 -10
16 -10 16 0 94 -75 94 -91 0 -5 -20 -9 -45 -9 -26 0 -45 -5 -45 -11 0 -6 -7
-9 -15 -5 -8 3 -19 -2 -24 -11 -8 -15 -13 -13 -39 15 -17 18 -35 32 -41 32 -6
0 -11 4 -11 10 0 5 -10 18 -21 29 -21 20 -21 20 -45 -4 -13 -13 -24 -37 -25
-52 0 -15 -3 -22 -6 -15 -3 9 -10 7 -23 -8 -12 -13 -28 -20 -42 -18 -20 3 -23
10 -26 51 -2 26 -6 47 -10 47 -4 0 -8 18 -9 40 -2 35 1 40 19 40 l21 0 -21 23
c-29 30 -28 71 0 91 12 9 25 16 28 16 3 0 16 -7 28 -16z m1903 -66 c1 -7 1
-15 1 -19 0 -3 15 -6 35 -6 46 -1 65 -19 40 -38 -13 -9 -16 -20 -11 -39 5 -23
3 -26 -18 -26 -17 0 -29 -8 -36 -25 -16 -35 -60 -44 -83 -17 -9 12 -22 22 -29
22 -22 0 -40 29 -40 63 0 30 4 35 30 41 17 3 30 11 30 19 0 7 5 18 12 25 16
16 68 15 69 0z m-1171 -18 c0 -5 -7 -10 -16 -10 -8 0 -12 5 -9 10 3 6 10 10
16 10 5 0 9 -4 9 -10z m1332 -88 c3 -11 -1 -30 -8 -43 -7 -13 -14 -18 -15 -11
-1 14 -2 48 0 62 2 17 18 11 23 -8z m-2428 0 c2 -4 -4 -13 -14 -19 -15 -10
-17 -9 -13 8 5 20 18 25 27 11z m1931 -39 c34 -36 38 -57 10 -46 -11 4 -15 -2
-15 -23 0 -23 2 -26 11 -14 8 12 9 10 5 -10 -3 -14 -6 -35 -6 -47 0 -27 -15
-29 -38 -6 -12 12 -13 18 -4 21 16 5 16 94 0 112 -7 8 -3 6 10 -4 28 -24 30
-4 2 24 -20 20 -25 30 -15 30 3 0 21 -16 40 -37z m-1858 21 c-3 -3 -12 -4 -19
-1 -8 3 -5 6 6 6 11 1 17 -2 13 -5z m1443 -44 c-6 -11 -15 -20 -20 -20 -6 0
-5 9 2 20 7 11 16 20 21 20 4 0 3 -9 -3 -20z m1194 -5 c19 -15 19 -15 -1 -15
-11 0 -23 7 -27 15 -7 19 3 19 28 0z m-2509 -24 c-3 -5 3 -12 12 -14 14 -4 13
-5 -4 -6 -14 -1 -23 5 -23 14 0 8 5 15 11 15 5 0 8 -4 4 -9z m900 -1 c3 -5 1
-10 -4 -10 -6 0 -11 5 -11 10 0 6 2 10 4 10 3 0 8 -4 11 -10z m1555 -31 c14
-10 41 -19 60 -21 34 -4 35 -5 36 -54 1 -27 5 -61 9 -76 l7 -27 -48 15 c-27 8
-67 14 -89 12 -35 -2 -40 0 -43 21 -4 23 -10 34 -42 69 -14 15 -12 19 22 45
21 15 38 32 38 38 0 11 9 7 50 -22z m-2390 7 c0 -8 6 -17 13 -19 6 -3 1 -6
-11 -6 -15 -1 -26 -9 -29 -20 -3 -14 -15 -21 -37 -23 -17 -2 -30 -8 -29 -14 1
-7 -8 -9 -22 -6 -30 5 -31 13 -5 32 27 20 25 30 -6 30 -14 0 -23 4 -19 10 8
14 42 13 47 -1 6 -18 78 -2 78 16 0 8 5 15 10 15 6 0 10 -6 10 -14z m225 -20
c15 -13 47 -27 71 -31 l43 -6 -11 -31 c-8 -23 -8 -40 1 -65 7 -19 11 -36 9
-38 -1 -2 -28 1 -58 7 -30 5 -67 8 -82 6 -25 -4 -29 0 -38 30 -5 19 -19 45
-31 58 l-21 22 24 13 c12 6 32 22 42 35 11 13 20 24 21 24 1 0 15 -11 30 -24z
m975 -2 c0 -8 -5 -12 -10 -9 -6 4 -8 11 -5 16 9 14 15 11 15 -7z m-1613 -26
c-3 -8 -6 -5 -6 6 -1 11 2 17 5 13 3 -3 4 -12 1 -19z m1076 8 c12 -9 17 -27
17 -59 0 -41 -3 -47 -25 -53 -14 -3 -34 -17 -44 -30 -10 -13 -26 -24 -34 -24
-8 0 -20 -13 -27 -30 -7 -16 -16 -30 -20 -30 -15 0 -17 -38 -4 -76 8 -21 14
-40 14 -42 0 -2 -19 -2 -42 -1 -60 4 -138 49 -138 79 0 6 -7 18 -15 26 -8 9
-15 19 -15 24 0 8 27 36 65 68 14 12 14 15 0 28 -17 17 -19 52 -5 74 7 11 10
5 10 -23 0 -23 4 -36 10 -32 6 3 11 -4 11 -17 1 -19 3 -18 9 7 7 26 8 22 9
-22 1 -53 14 -71 24 -33 3 11 12 20 21 20 9 0 16 4 16 9 0 5 3 17 7 27 5 13 3
16 -10 11 -12 -4 -17 -1 -17 9 0 9 9 18 20 21 11 3 20 10 20 15 0 6 14 8 30 6
20 -3 30 0 30 9 0 9 -13 13 -40 13 -33 0 -40 3 -40 20 0 18 7 20 73 20 44 -1
79 -6 90 -14z m800 0 c12 -9 17 -27 17 -59 0 -25 5 -49 10 -52 16 -10 12 -51
-6 -66 -14 -12 -19 -10 -33 10 -17 24 -57 66 -85 89 -19 15 -12 60 13 79 21
16 62 16 84 -1z m-1003 -45 c0 -11 -4 -23 -10 -26 -6 -4 -10 5 -10 19 0 14 5
26 10 26 6 0 10 -9 10 -19z m772 -33 c-9 -9 -12 -7 -12 12 0 19 3 21 12 12 9
-9 9 -15 0 -24z m-1852 -78 c0 -5 -4 -10 -10 -10 -5 0 -10 5 -10 10 0 6 5 10
10 10 6 0 10 -4 10 -10z m2546 -4 c20 -21 17 -60 -6 -81 -19 -17 -19 -18 3
-36 21 -17 21 -19 5 -35 -14 -14 -20 -15 -32 -4 -13 10 -19 10 -32 -1 -14 -11
-19 -10 -35 9 -15 19 -22 21 -38 13 -33 -18 -51 -13 -51 14 0 32 29 65 57 65
13 0 23 5 23 12 0 21 43 58 67 58 14 0 31 -6 39 -14z m-1206 -26 c0 -17 7 -20
39 -20 24 0 41 -5 44 -14 7 -18 -1 -26 -25 -26 -18 0 -18 -2 -4 -22 22 -31 20
-38 -8 -38 -16 0 -27 -8 -35 -28 -15 -36 -64 -43 -83 -12 -7 11 -20 20 -28 20
-48 0 -54 67 -10 101 16 13 30 32 30 42 0 13 9 17 40 17 33 0 40 -3 40 -20z
m1885 -10 c3 -5 1 -10 -4 -10 -6 0 -11 5 -11 10 0 6 2 10 4 10 3 0 8 -4 11
-10z m-2985 -20 c0 -5 -4 -10 -10 -10 -5 0 -10 5 -10 10 0 6 5 10 10 10 6 0
10 -4 10 -10z m640 -2 c17 -11 22 -10 30 2 5 8 10 11 11 5 2 -21 -3 -130 -6
-133 -1 -2 -16 9 -31 23 -23 21 -29 36 -30 71 -2 49 -2 49 26 32z m-403 -34
c-3 -3 -12 -4 -19 -1 -8 3 -5 6 6 6 11 1 17 -2 13 -5z m103 -45 c0 -14 -17
-10 -23 5 -4 10 -1 13 9 9 7 -3 14 -9 14 -14z"/>
<path d="M2740 4670 c0 -13 11 -13 30 0 12 8 11 10 -7 10 -13 0 -23 -4 -23
-10z"/>
<path d="M2812 4673 c-8 -3 0 -17 25 -39 20 -18 39 -31 42 -28 3 3 0 9 -8 13
-7 5 -12 12 -10 16 2 8 -23 45 -31 44 -3 0 -11 -3 -18 -6z"/>
<path d="M2380 4651 c0 -6 5 -13 10 -16 6 -3 10 1 10 9 0 9 -4 16 -10 16 -5 0
-10 -4 -10 -9z"/>
<path d="M3787 4526 c-4 -10 -5 -21 -2 -24 9 -9 17 6 13 25 -3 17 -4 17 -11
-1z"/>
<path d="M2388 5440 c-20 -11 -48 -35 -61 -52 -27 -36 -45 -108 -27 -108 5 0
10 4 10 10 0 19 61 68 93 74 52 11 137 1 137 -15 0 -5 6 -9 13 -9 7 0 23 -9
35 -20 22 -21 52 -27 52 -10 0 15 87 12 118 -4 28 -15 51 -39 70 -72 10 -16
11 -11 12 28 0 40 -5 51 -36 82 -20 20 -44 36 -54 36 -11 0 -21 4 -25 10 -4 6
-15 6 -31 0 -42 -16 -68 -11 -106 20 -66 55 -134 65 -200 30z"/>
<path d="M2746 5051 c-4 -5 -2 -12 3 -15 5 -4 12 -2 15 3 4 5 2 12 -3 15 -5 4
-12 2 -15 -3z"/>
<path d="M2800 5050 c0 -13 41 -23 76 -17 29 4 28 4 -3 6 -18 0 -33 6 -33 11
0 6 -9 10 -20 10 -11 0 -20 -4 -20 -10z"/>
<path d="M1913 4942 c-28 -31 -33 -44 -33 -89 l0 -53 48 0 c27 0 57 -7 70 -16
12 -8 27 -12 32 -9 16 10 12 19 -12 30 -28 12 -60 75 -67 132 l-6 41 -32 -36z"/>
<path d="M1664 4900 c-46 -10 -81 -40 -104 -87 -20 -42 -26 -73 -14 -73 3 0
19 14 34 30 15 17 31 30 35 30 4 0 21 10 38 22 25 18 45 22 107 23 71 0 76 1
66 18 -6 9 -18 17 -28 17 -9 0 -18 4 -20 8 -5 13 -78 21 -114 12z"/>
<path d="M1620 4760 c-34 -26 -36 -104 -3 -139 12 -13 27 -21 33 -19 7 2 3 12
-10 25 -27 29 -27 92 0 121 34 36 22 44 -20 12z"/>
<path d="M3406 4543 c-11 -11 -6 -23 9 -23 8 0 15 4 15 9 0 13 -16 22 -24 14z"/>
<path d="M4005 4529 c-11 -17 1 -21 15 -4 8 9 8 15 2 15 -6 0 -14 -5 -17 -11z"/>
<path d="M3910 4495 c0 -8 2 -15 4 -15 2 0 6 7 10 15 3 8 1 15 -4 15 -6 0 -10
-7 -10 -15z"/>
<path d="M2951 4434 c0 -11 3 -14 6 -6 3 7 2 16 -1 19 -3 4 -6 -2 -5 -13z"/>
<path d="M3188 4343 c6 -2 18 -2 25 0 6 3 1 5 -13 5 -14 0 -19 -2 -12 -5z"/>
<path d="M1805 4320 c3 -5 8 -10 11 -10 2 0 4 5 4 10 0 6 -5 10 -11 10 -5 0
-7 -4 -4 -10z"/>
<path d="M4160 4290 c0 -5 5 -10 11 -10 5 0 7 5 4 10 -3 6 -8 10 -11 10 -2 0
-4 -4 -4 -10z"/>
<path d="M4392 4280 c-18 -29 -15 -38 4 -12 9 13 14 25 12 27 -2 2 -9 -5 -16
-15z"/>
<path d="M2258 4263 c6 -2 18 -2 25 0 6 3 1 5 -13 5 -14 0 -19 -2 -12 -5z"/>
<path d="M4160 4230 c0 -5 5 -10 10 -10 6 0 10 5 10 10 0 6 -4 10 -10 10 -5 0
-10 -4 -10 -10z"/>
<path d="M1500 4123 c0 -4 110 -640 140 -813 11 -63 45 -261 76 -440 31 -179
77 -451 104 -605 27 -154 83 -477 124 -718 42 -240 76 -440 76 -442 0 -8 122
-65 138 -65 8 0 11 8 7 23 -2 12 -74 490 -160 1062 -85 572 -164 1094 -174
1160 -11 66 -41 266 -67 445 l-48 326 -108 35 c-59 20 -108 34 -108 32z"/>
<path d="M4653 4091 c-90 -30 -103 -37 -107 -60 -3 -14 -78 -512 -166 -1106
-176 -1197 -267 -1803 -275 -1853 -4 -22 -2 -32 7 -32 16 0 138 57 138 65 0 3
25 148 55 323 74 431 111 650 200 1177 42 248 85 500 96 560 59 335 160 948
157 953 -2 4 -49 -8 -105 -27z"/>
<path d="M2135 3954 c3 -22 21 -185 40 -364 19 -179 59 -554 90 -835 30 -280
66 -616 80 -745 13 -129 43 -410 66 -625 23 -214 46 -395 50 -401 10 -12 246
-40 256 -30 6 6 1 104 -52 911 -13 204 -36 546 -50 760 -58 911 -87 1330 -90
1333 -2 2 -61 7 -132 12 -70 5 -159 12 -196 16 l-68 7 6 -39z"/>
<path d="M3980 3979 c-41 -4 -114 -10 -161 -14 l-85 -6 -22 -357 c-13 -196
-45 -708 -72 -1137 -82 -1287 -94 -1504 -88 -1511 4 -3 63 0 132 6 116 12 127
15 131 34 2 11 18 156 35 321 17 165 60 577 95 915 36 338 90 849 120 1135 31
286 58 544 62 573 l6 52 -39 -1 c-22 -1 -73 -5 -114 -10z"/>
<path d="M2944 3580 c6 -312 26 -1249 52 -2357 l7 -293 133 0 134 0 0 133 c0
72 4 330 10 572 5 242 16 782 24 1200 9 418 18 837 21 932 l6 172 -197 3 -197
3 7 -365z"/>
</g>
</svg>
